<svg id="svg" version="1.1" xmlns="http://www.w3.org/2000/svg" xmlns:xlink="http://www.w3.org/1999/xlink" width="400" height="400" viewBox="0, 0, 400,400"><g id="svgg"><path id="path0" d="M308.036 171.633 C 289.681 174.011,284.328 194.835,300.200 202.121 C 302.019 202.956,306.345 204.351,310.900 205.570 C 323.705 208.999,325.600 210.216,325.600 215.017 C 325.600 220.141,322.263 222.205,314.000 222.191 C 305.848 222.177,300.854 218.735,300.809 213.100 L 300.800 212.000 295.000 212.000 L 289.200 212.000 289.200 214.147 C 289.200 232.363,325.299 238.491,335.068 221.934 C 337.825 217.260,337.887 209.748,335.204 205.406 C 332.852 201.601,324.927 196.800,320.998 196.800 C 320.590 196.800,319.074 196.453,317.628 196.028 C 316.183 195.603,313.560 194.864,311.800 194.386 C 304.769 192.476,302.800 191.001,302.800 187.646 C 302.800 178.034,321.001 177.619,323.425 187.176 L 323.888 189.000 329.602 189.111 L 335.316 189.223 335.055 186.724 C 334.171 178.265,327.158 172.642,316.200 171.605 C 311.678 171.178,311.553 171.178,308.036 171.633 M62.400 177.600 L 62.400 182.400 70.720 182.400 C 76.658 182.400,79.177 182.537,79.520 182.880 C 79.882 183.242,80.000 189.120,80.000 206.880 L 80.000 230.400 85.800 230.400 L 91.600 230.400 91.685 213.100 C 91.731 203.585,91.708 193.057,91.632 189.704 C 91.449 181.579,90.557 182.249,101.083 182.607 L 109.600 182.898 109.600 177.849 L 109.600 172.800 86.000 172.800 L 62.400 172.800 62.400 177.600 M116.800 201.600 L 116.800 230.400 122.800 230.400 L 128.800 230.400 128.800 201.600 L 128.800 172.800 122.800 172.800 L 116.800 172.800 116.800 201.600 M136.400 177.792 L 136.400 182.784 145.100 182.892 L 153.800 183.000 153.903 206.700 L 154.006 230.400 159.803 230.400 L 165.600 230.400 165.600 206.643 C 165.600 185.348,165.666 182.860,166.233 182.643 C 166.581 182.509,170.541 182.400,175.033 182.400 L 183.200 182.400 183.200 177.600 L 183.200 172.800 159.800 172.800 L 136.400 172.800 136.400 177.792 M190.800 201.600 L 190.800 230.400 211.200 230.400 L 231.600 230.400 231.600 225.400 L 231.600 220.400 217.400 220.400 L 203.200 220.400 203.200 196.600 L 203.200 172.800 197.000 172.800 L 190.800 172.800 190.800 201.600 M239.600 201.600 L 239.600 230.400 257.339 230.400 L 275.078 230.400 282.596 241.573 L 290.114 252.746 287.327 257.073 C 285.793 259.453,282.998 264.010,281.114 267.200 C 275.370 276.927,272.689 280.362,263.282 290.053 C 250.310 303.414,242.057 305.300,233.184 296.929 C 229.864 293.797,218.170 277.189,213.279 268.659 L 211.291 265.192 208.345 268.468 C 206.725 270.270,204.300 272.926,202.956 274.372 C 191.724 286.448,191.420 286.792,191.184 287.737 C 190.893 288.902,188.517 289.206,188.144 288.126 C 188.007 287.726,184.643 284.123,180.670 280.119 L 173.446 272.838 170.223 275.931 C 159.433 286.288,149.409 287.597,141.158 279.728 C 137.806 276.531,135.999 273.631,130.549 262.705 L 125.813 253.210 128.261 250.705 C 131.144 247.755,137.600 240.039,137.600 239.544 C 137.600 238.741,136.861 239.420,134.600 242.299 C 131.079 246.783,97.861 280.748,89.277 288.641 C 76.227 300.640,61.485 311.590,40.539 324.839 C 30.674 331.079,16.783 338.563,7.200 342.801 L 0.200 345.897 0.097 372.948 L -0.006 400.000 199.997 400.000 L 400.000 400.000 399.995 369.500 L 399.990 339.000 395.710 336.800 C 390.520 334.133,378.570 327.330,374.265 324.593 C 355.345 312.563,338.828 300.460,329.600 291.865 C 314.816 278.094,292.433 255.429,291.485 253.268 C 291.227 252.681,290.908 252.110,290.775 252.000 C 290.642 251.890,289.172 249.730,287.510 247.200 C 285.847 244.670,282.760 240.080,280.649 237.000 C 275.971 230.173,276.000 230.400,279.800 230.400 L 282.800 230.400 282.800 225.400 L 282.800 220.400 276.500 220.397 L 270.200 220.393 269.250 218.697 C 268.727 217.764,267.435 215.024,266.379 212.610 C 265.322 210.195,264.264 208.155,264.028 208.076 C 263.488 207.896,263.621 208.255,266.303 214.200 C 267.494 216.840,268.565 219.319,268.683 219.708 C 268.884 220.372,268.370 220.410,260.349 220.308 L 251.800 220.200 251.691 212.700 L 251.582 205.200 265.591 205.200 L 279.600 205.200 279.600 200.605 L 279.600 196.010 265.700 195.905 L 251.800 195.800 251.690 189.300 L 251.580 182.800 266.990 182.800 L 282.400 182.800 282.400 177.800 L 282.400 172.800 261.000 172.800 L 239.600 172.800 239.600 201.600 " stroke="none" fill="#4b577a" fill-rule="evenodd"></path><path id="path1" d="M313.400 76.821 C 309.387 80.646,302.600 87.720,299.067 91.761 C 298.663 92.223,296.837 94.220,295.008 96.200 C 293.179 98.180,291.189 100.340,290.587 101.000 C 289.349 102.357,283.915 108.243,281.200 111.169 C 280.210 112.236,277.870 114.784,276.000 116.831 C 274.130 118.879,271.500 121.734,270.155 123.177 C 268.811 124.620,266.831 126.767,265.755 127.949 C 264.680 129.131,263.080 130.856,262.200 131.782 C 261.320 132.708,259.816 134.350,258.859 135.433 C 257.901 136.515,255.098 139.560,252.630 142.200 C 250.162 144.840,247.436 147.794,246.571 148.766 C 245.707 149.737,244.370 151.191,243.600 151.998 C 242.830 152.804,241.030 154.771,239.600 156.367 C 238.170 157.964,236.190 160.125,235.200 161.169 C 232.374 164.151,228.515 168.309,224.600 172.591 C 222.620 174.756,220.219 177.354,219.265 178.364 C 218.311 179.374,216.803 181.010,215.913 182.000 C 214.174 183.936,208.585 190.040,205.512 193.360 L 203.623 195.400 203.612 207.495 L 203.600 219.590 217.700 219.695 L 231.800 219.800 231.911 225.304 L 232.023 230.807 211.311 230.704 L 190.600 230.600 190.493 220.254 L 190.386 209.908 188.420 212.054 L 186.453 214.200 184.996 212.800 C 182.172 210.087,177.266 205.344,171.962 200.200 L 166.600 195.000 166.400 212.800 L 166.200 230.600 159.700 230.710 L 153.200 230.820 153.200 207.010 L 153.200 183.200 144.389 183.200 L 135.577 183.200 135.689 177.700 L 135.800 172.200 139.084 172.084 L 142.367 171.968 138.284 168.036 C 124.414 154.680,126.285 155.547,121.632 160.321 C 119.744 162.258,116.760 165.435,115.000 167.381 C 113.240 169.327,111.395 171.285,110.900 171.732 C 110.052 172.497,110.000 172.854,110.000 177.872 L 110.000 183.200 105.000 183.200 C 102.250 183.200,99.999 183.335,99.998 183.500 C 99.997 183.665,98.827 185.015,97.398 186.499 C 95.969 187.984,94.800 189.275,94.800 189.368 C 94.800 189.462,94.260 190.078,93.600 190.738 C 91.516 192.822,91.829 195.321,94.500 197.927 C 98.622 201.950,107.188 210.272,111.657 214.596 L 116.200 218.992 116.303 195.496 L 116.406 172.000 122.808 172.000 L 129.210 172.000 129.193 201.700 L 129.177 231.400 132.889 234.942 C 134.930 236.891,138.580 240.407,141.000 242.757 C 144.772 246.419,153.329 254.589,161.187 262.029 C 162.390 263.168,164.060 264.533,164.898 265.062 C 166.944 266.353,187.597 286.753,188.045 287.925 C 188.530 289.191,190.859 289.044,191.184 287.727 C 191.303 287.247,193.020 285.106,195.000 282.969 C 201.177 276.302,201.982 275.406,201.991 275.186 C 202.004 274.881,206.404 270.075,210.400 266.000 C 213.506 262.834,219.540 256.379,224.600 250.810 C 225.700 249.600,227.609 247.527,228.842 246.205 C 230.075 244.882,233.725 240.920,236.952 237.400 L 242.820 231.000 241.008 230.878 L 239.195 230.756 239.297 201.478 L 239.400 172.200 261.092 172.097 L 282.783 171.993 283.008 172.897 C 283.131 173.393,283.180 175.870,283.116 178.400 L 283.000 183.000 267.700 183.105 L 252.400 183.210 252.400 189.405 L 252.400 195.600 263.949 195.600 L 275.498 195.600 277.220 193.700 C 278.167 192.655,280.035 190.620,281.371 189.178 C 283.750 186.611,289.600 180.248,293.376 176.122 C 294.422 174.980,296.027 173.251,296.943 172.282 C 297.859 171.312,299.777 169.216,301.204 167.624 C 302.632 166.032,304.610 163.879,305.600 162.839 C 306.590 161.799,308.867 159.340,310.659 157.374 C 312.452 155.408,314.416 153.260,315.024 152.600 C 315.633 151.940,317.856 149.521,319.965 147.225 C 322.074 144.929,324.896 141.869,326.235 140.425 C 327.574 138.981,331.966 134.200,335.995 129.800 C 340.024 125.400,343.608 121.516,343.960 121.169 C 344.312 120.822,345.950 119.038,347.600 117.205 C 349.250 115.372,350.915 113.591,351.300 113.247 C 352.716 111.983,351.455 110.092,346.200 105.599 C 344.485 104.133,339.282 99.331,332.982 93.400 C 332.048 92.520,329.067 89.730,326.358 87.200 C 323.650 84.670,319.986 81.209,318.217 79.509 C 315.093 76.507,314.233 76.027,313.400 76.821 M252.400 212.600 C 252.400 220.458,252.421 220.502,254.944 217.877 C 258.882 213.781,263.393 208.649,263.308 208.361 C 263.258 208.189,263.528 207.943,263.908 207.814 C 264.289 207.685,264.923 207.134,265.319 206.590 L 266.037 205.600 259.219 205.600 L 252.400 205.600 252.400 212.600 M104.400 273.400 C 103.428 274.390,102.723 275.200,102.833 275.200 C 102.943 275.200,103.828 274.390,104.800 273.400 C 105.772 272.410,106.477 271.600,106.367 271.600 C 106.257 271.600,105.372 272.410,104.400 273.400 " stroke="none" fill="#93c3e3" fill-rule="evenodd"></path><path id="path2" d="M0.000 172.786 L 0.000 345.572 1.700 344.833 C 10.975 340.801,13.890 339.427,19.651 336.370 C 39.920 325.616,55.816 315.346,75.053 300.576 C 85.543 292.522,97.466 281.168,116.030 261.556 C 120.322 257.022,124.968 252.261,126.356 250.977 C 128.665 248.839,136.800 239.484,136.800 238.966 C 136.800 238.844,134.955 236.961,132.700 234.782 L 128.600 230.818 122.500 230.809 L 116.400 230.800 116.400 224.978 L 116.400 219.155 111.753 214.678 C 107.619 210.694,100.563 203.844,94.500 197.927 L 92.400 195.878 92.400 213.339 L 92.400 230.800 86.000 230.800 L 79.600 230.800 79.600 207.000 L 79.600 183.200 70.789 183.200 L 61.977 183.200 62.089 177.700 L 62.200 172.200 86.386 172.115 C 106.364 172.045,110.679 171.934,111.186 171.475 C 111.524 171.170,113.240 169.328,115.000 167.381 C 120.952 160.799,125.048 156.800,125.832 156.808 C 126.254 156.812,128.310 158.455,130.400 160.459 C 132.490 162.463,136.045 165.880,138.300 168.052 L 142.400 172.000 163.000 172.000 L 183.600 172.000 183.600 177.600 L 183.600 183.200 175.000 183.200 L 166.400 183.200 166.400 189.015 L 166.400 194.829 171.865 200.115 C 180.492 208.457,183.432 211.297,184.996 212.800 L 186.453 214.200 188.423 212.051 L 190.392 209.902 190.496 191.051 L 190.600 172.200 197.000 172.200 L 203.400 172.200 203.600 183.766 L 203.800 195.332 206.600 192.208 C 208.140 190.490,209.920 188.525,210.555 187.842 C 211.191 187.159,213.072 185.110,214.735 183.289 C 216.397 181.468,218.488 179.202,219.379 178.253 C 220.271 177.304,222.620 174.756,224.600 172.591 C 228.515 168.309,232.374 164.151,235.200 161.169 C 236.190 160.125,238.170 157.964,239.600 156.367 C 241.030 154.771,242.830 152.804,243.600 151.998 C 244.370 151.191,245.707 149.737,246.571 148.766 C 247.436 147.794,250.162 144.840,252.630 142.200 C 255.098 139.560,257.901 136.515,258.859 135.433 C 259.816 134.350,261.320 132.708,262.200 131.782 C 263.080 130.856,264.680 129.131,265.755 127.949 C 266.831 126.767,268.811 124.620,270.155 123.177 C 271.500 121.734,274.130 118.879,276.000 116.831 C 277.870 114.784,280.210 112.236,281.200 111.169 C 283.915 108.243,289.349 102.357,290.587 101.000 C 291.189 100.340,293.179 98.180,295.008 96.200 C 296.837 94.220,298.663 92.223,299.067 91.761 C 302.880 87.400,311.400 78.536,313.181 77.077 C 314.417 76.063,314.741 76.223,318.289 79.600 C 320.022 81.250,323.655 84.670,326.362 87.200 C 329.068 89.730,332.048 92.520,332.982 93.400 C 339.282 99.331,344.485 104.133,346.200 105.599 C 351.455 110.092,352.716 111.983,351.300 113.247 C 350.915 113.591,349.250 115.372,347.600 117.205 C 345.950 119.038,344.312 120.822,343.960 121.169 C 343.608 121.516,340.024 125.400,335.995 129.800 C 331.966 134.200,327.574 138.981,326.235 140.425 C 324.896 141.869,322.074 144.929,319.965 147.225 C 317.856 149.521,315.633 151.940,315.024 152.600 C 314.416 153.260,312.452 155.408,310.659 157.374 C 308.867 159.340,306.590 161.799,305.600 162.839 C 304.610 163.879,302.632 166.032,301.204 167.624 C 299.777 169.216,297.859 171.312,296.943 172.282 C 296.027 173.251,294.422 174.980,293.376 176.122 C 289.600 180.248,283.750 186.611,281.371 189.178 C 280.035 190.620,278.167 192.655,277.220 193.700 L 275.498 195.600 277.949 195.600 L 280.400 195.600 280.400 200.600 L 280.400 205.600 273.262 205.600 C 263.207 205.600,263.306 205.412,268.018 215.477 L 269.948 219.600 276.774 219.600 L 283.600 219.600 283.600 225.184 L 283.600 230.769 280.212 230.884 L 276.825 231.000 280.656 236.600 C 282.763 239.680,285.847 244.270,287.510 246.800 C 289.172 249.330,290.642 251.490,290.775 251.600 C 290.908 251.710,291.227 252.281,291.485 252.868 C 292.433 255.028,315.292 278.174,330.000 291.866 C 338.786 300.045,355.820 312.660,370.909 322.162 C 379.415 327.519,398.731 338.400,399.735 338.400 C 399.881 338.400,400.000 262.260,400.000 169.200 L 400.000 0.000 200.000 0.000 L 0.000 0.000 0.000 172.786 M319.876 171.589 C 328.589 173.428,334.327 178.721,335.613 186.105 C 336.327 190.204,336.591 190.039,329.541 189.910 L 323.466 189.800 323.168 188.800 C 323.004 188.250,322.760 187.300,322.625 186.690 C 320.813 178.486,303.200 179.393,303.200 187.690 C 303.200 191.371,304.864 192.267,317.856 195.584 C 331.489 199.065,336.185 202.600,337.636 210.473 C 339.904 222.783,329.746 231.988,313.883 231.997 C 298.724 232.006,288.481 224.087,288.407 212.300 L 288.400 211.200 294.749 211.200 L 301.098 211.200 301.289 213.190 C 302.316 223.876,325.210 225.360,325.199 214.740 C 325.194 210.974,322.016 208.896,312.400 206.371 C 296.637 202.232,292.175 199.103,290.696 191.151 C 288.206 177.763,302.795 167.983,319.876 171.589 M92.400 187.569 L 92.400 191.938 93.600 190.738 C 94.260 190.078,94.800 189.462,94.800 189.368 C 94.800 189.275,95.969 187.984,97.398 186.499 C 100.676 183.094,100.715 183.200,96.200 183.200 L 92.400 183.200 92.400 187.569 M259.985 212.438 C 258.123 214.483,255.855 216.930,254.944 217.877 L 253.288 219.600 260.817 219.600 L 268.345 219.600 266.563 215.700 C 265.582 213.555,264.463 211.107,264.075 210.261 L 263.370 208.722 259.985 212.438 M235.711 238.700 C 227.892 247.206,227.204 247.957,224.427 251.006 C 223.422 252.109,220.689 255.079,218.354 257.606 C 212.368 264.084,211.600 264.948,211.600 265.210 C 211.600 266.150,220.503 279.686,228.837 291.418 C 240.465 307.788,252.513 304.477,272.573 279.400 C 276.235 274.823,276.961 273.736,282.199 265.000 C 284.573 261.040,287.209 256.775,288.058 255.522 C 290.069 252.552,290.598 253.843,282.335 241.580 L 275.071 230.800 259.021 230.800 L 242.972 230.800 235.711 238.700 M135.000 243.502 C 133.460 245.421,130.858 248.402,129.219 250.125 L 126.237 253.259 130.961 262.730 C 136.399 273.631,138.208 276.532,141.558 279.728 C 149.745 287.536,159.156 286.190,170.104 275.644 L 173.208 272.654 169.704 269.281 C 167.777 267.425,165.547 265.490,164.748 264.979 C 163.491 264.175,160.026 261.012,153.817 255.000 C 148.612 249.960,138.070 240.001,137.946 240.006 C 137.866 240.009,136.540 241.582,135.000 243.502 " stroke="none" fill="#f4f4f4" fill-rule="evenodd"></path><path id="path3" d="M308.305 171.483 C 308.802 171.579,309.522 171.575,309.905 171.475 C 310.287 171.375,309.880 171.296,309.000 171.301 C 308.120 171.305,307.807 171.387,308.305 171.483 M314.707 171.490 C 315.426 171.579,316.506 171.577,317.107 171.486 C 317.708 171.395,317.120 171.322,315.800 171.324 C 314.480 171.326,313.988 171.401,314.707 171.490 M116.497 201.300 L 116.595 230.600 116.700 201.700 L 116.805 172.800 122.808 172.800 L 128.810 172.800 128.705 201.800 C 128.647 217.750,128.735 230.800,128.900 230.800 C 129.065 230.800,129.200 217.570,129.200 201.400 L 129.200 172.000 122.800 172.000 L 116.400 172.000 116.497 201.300 M135.900 172.218 C 135.735 172.392,135.600 174.933,135.600 177.867 L 135.600 183.200 144.400 183.200 L 153.200 183.200 153.200 207.010 L 153.200 230.820 159.700 230.710 L 166.200 230.600 166.140 206.900 L 166.079 183.200 174.840 183.200 L 183.600 183.200 183.600 177.800 L 183.600 172.400 164.663 172.400 C 154.247 172.400,143.582 172.288,140.963 172.152 C 138.343 172.015,136.065 172.045,135.900 172.218 M239.467 172.267 C 239.320 172.413,239.200 185.643,239.200 201.667 L 239.200 230.800 241.300 230.728 L 243.400 230.656 241.500 230.506 L 239.600 230.356 239.600 201.578 L 239.600 172.800 261.000 172.800 L 282.400 172.800 282.400 177.800 L 282.400 182.800 266.990 182.800 L 251.580 182.800 251.690 189.300 L 251.800 195.800 265.700 195.905 L 279.600 196.010 279.600 200.605 L 279.600 205.200 265.591 205.200 L 251.582 205.200 251.691 212.700 L 251.800 220.200 260.300 220.308 C 268.208 220.408,268.800 220.367,268.794 219.708 C 268.789 219.194,268.699 219.140,268.465 219.509 C 268.218 219.898,266.320 219.992,260.371 219.909 L 252.600 219.800 252.491 212.705 L 252.382 205.610 266.291 205.505 L 280.200 205.400 280.312 200.500 L 280.425 195.600 266.412 195.600 L 252.400 195.600 252.400 189.405 L 252.400 183.210 267.700 183.105 L 283.000 183.000 283.116 178.400 C 283.180 175.870,283.132 173.395,283.008 172.900 L 282.785 172.000 261.259 172.000 C 249.420 172.000,239.613 172.120,239.467 172.267 M62.088 177.697 L 62.200 183.000 70.900 183.108 L 79.600 183.216 79.697 206.908 L 79.793 230.600 79.900 207.045 C 79.977 189.976,79.882 183.340,79.554 182.945 C 79.199 182.517,77.311 182.400,70.751 182.400 L 62.400 182.400 62.400 177.600 L 62.400 172.800 86.000 172.800 L 109.600 172.800 109.600 177.851 L 109.600 182.902 101.191 182.609 C 95.138 182.398,92.630 182.443,92.238 182.768 C 91.546 183.343,91.300 230.400,91.989 230.400 C 92.266 230.400,92.400 222.678,92.400 206.800 L 92.400 183.200 101.212 183.200 L 110.023 183.200 109.912 177.900 L 109.800 172.600 85.888 172.497 L 61.977 172.394 62.088 177.697 M193.919 172.698 C 195.744 172.772,198.624 172.772,200.319 172.697 C 202.014 172.622,200.520 172.561,197.000 172.562 C 193.480 172.562,192.094 172.624,193.919 172.698 M322.600 172.800 C 323.040 172.989,323.670 173.144,324.000 173.144 C 324.378 173.144,324.304 173.017,323.800 172.800 C 323.360 172.611,322.730 172.456,322.400 172.456 C 322.022 172.456,322.096 172.583,322.600 172.800 M183.200 177.600 L 183.200 182.400 175.033 182.400 C 170.541 182.400,166.581 182.509,166.233 182.643 C 165.666 182.860,165.600 185.348,165.600 206.643 L 165.600 230.400 159.803 230.400 L 154.006 230.400 153.903 206.700 L 153.800 183.000 145.100 182.892 L 136.400 182.784 136.400 177.792 L 136.400 172.800 159.800 172.800 L 183.200 172.800 183.200 177.600 M299.526 174.014 C 298.715 174.442,297.946 174.964,297.816 175.173 C 297.687 175.383,298.395 175.099,299.391 174.543 C 300.386 173.987,301.200 173.457,301.200 173.366 C 301.200 173.134,301.172 173.144,299.526 174.014 M325.600 173.779 C 325.600 173.889,326.140 174.259,326.800 174.600 C 327.460 174.941,328.000 175.131,328.000 175.021 C 328.000 174.911,327.460 174.541,326.800 174.200 C 326.140 173.859,325.600 173.669,325.600 173.779 M295.200 177.400 C 294.228 178.390,293.523 179.200,293.633 179.200 C 293.743 179.200,294.628 178.390,295.600 177.400 C 296.572 176.410,297.277 175.600,297.167 175.600 C 297.057 175.600,296.172 176.410,295.200 177.400 M330.004 176.651 C 330.007 176.843,330.671 177.630,331.480 178.400 C 332.947 179.796,332.949 179.797,332.094 178.564 C 331.119 177.158,329.998 176.132,330.004 176.651 M333.725 181.959 C 334.206 183.037,334.656 183.770,334.723 183.589 C 334.852 183.246,333.309 180.000,333.017 180.000 C 332.926 180.000,333.245 180.882,333.725 181.959 M307.541 181.002 C 305.725 181.587,303.198 183.864,303.201 184.914 C 303.202 185.181,303.545 184.840,303.962 184.155 C 307.405 178.509,321.068 180.428,322.802 186.800 C 323.071 187.790,323.355 188.825,323.433 189.100 C 323.538 189.472,325.120 189.600,329.587 189.600 L 335.600 189.600 335.533 187.900 L 335.466 186.200 335.308 187.711 L 335.150 189.222 329.519 189.111 L 323.888 189.000 323.425 187.176 C 322.063 181.805,314.357 178.810,307.541 181.002 M303.446 190.511 C 303.583 190.902,304.078 191.419,304.547 191.660 C 305.277 192.035,305.316 192.019,304.818 191.549 C 304.498 191.247,304.003 190.730,303.717 190.400 C 303.265 189.878,303.230 189.892,303.446 190.511 M291.600 194.187 C 291.600 194.915,294.142 198.446,294.950 198.839 L 295.800 199.254 294.937 198.527 C 294.462 198.127,293.517 196.910,292.837 195.822 C 292.157 194.734,291.600 193.998,291.600 194.187 M203.294 207.900 L 203.200 220.400 217.400 220.400 L 231.600 220.400 231.600 225.400 L 231.600 230.400 211.207 230.400 L 190.813 230.400 190.697 220.100 L 190.580 209.800 190.590 220.200 L 190.600 230.600 211.311 230.704 L 232.023 230.807 231.911 225.304 L 231.800 219.800 217.706 219.695 L 203.612 219.590 203.500 207.495 L 203.388 195.400 203.294 207.900 M319.000 196.381 C 319.768 196.729,321.910 196.956,321.567 196.653 C 321.475 196.572,320.680 196.396,319.800 196.262 C 318.685 196.093,318.442 196.129,319.000 196.381 M324.600 197.814 C 325.260 198.117,326.070 198.358,326.400 198.352 C 326.730 198.345,326.370 198.097,325.600 197.800 C 323.774 197.097,323.055 197.107,324.600 197.814 M328.564 199.285 C 332.797 202.137,335.383 205.029,336.419 208.072 C 336.818 209.242,337.157 209.830,337.172 209.379 C 337.256 206.927,332.923 201.446,329.483 199.649 C 328.557 199.166,328.144 199.002,328.564 199.285 M303.600 203.800 C 305.426 204.503,306.145 204.493,304.600 203.786 C 303.940 203.483,303.130 203.242,302.800 203.248 C 302.470 203.255,302.830 203.503,303.600 203.800 M308.400 205.200 C 309.768 205.638,310.819 205.638,309.800 205.200 C 309.360 205.011,308.640 204.862,308.200 204.868 C 307.557 204.877,307.596 204.943,308.400 205.200 M264.922 209.393 C 265.376 210.379,265.802 211.131,265.869 211.064 C 266.082 210.851,264.692 207.600,264.388 207.600 C 264.228 207.600,264.468 208.407,264.922 209.393 M321.200 208.957 C 321.200 209.055,321.834 209.527,322.610 210.006 C 324.605 211.239,325.329 212.842,325.106 215.530 C 324.424 223.750,306.674 224.579,302.309 216.595 C 301.076 214.339,300.792 214.438,301.963 216.716 C 305.338 223.277,319.360 224.680,324.382 218.959 C 326.084 217.021,326.169 213.138,324.552 211.216 C 323.629 210.119,321.200 208.482,321.200 208.957 M337.334 213.200 C 337.334 214.850,337.405 215.525,337.491 214.700 C 337.578 213.875,337.578 212.525,337.491 211.700 C 337.405 210.875,337.334 211.550,337.334 213.200 M288.872 213.500 C 288.943 215.775,288.946 215.779,289.094 213.900 L 289.244 212.000 295.022 212.000 C 298.607 212.000,300.800 211.848,300.800 211.600 C 300.800 211.351,298.533 211.200,294.800 211.200 L 288.800 211.200 288.872 213.500 M266.000 211.711 C 266.000 212.149,268.749 218.000,268.954 218.000 C 269.064 218.000,268.519 216.605,267.743 214.900 C 266.368 211.882,266.000 211.209,266.000 211.711 M336.473 218.473 C 336.235 219.409,336.110 220.243,336.194 220.327 C 336.278 220.412,336.551 219.724,336.800 218.800 C 337.049 217.876,337.174 217.041,337.079 216.945 C 336.983 216.850,336.710 217.537,336.473 218.473 M276.300 220.299 L 282.800 220.420 282.800 225.410 C 282.800 228.470,282.955 230.400,283.200 230.400 C 283.446 230.400,283.600 228.400,283.600 225.200 L 283.600 220.000 276.700 220.089 L 269.800 220.179 276.300 220.299 M291.438 221.924 C 291.857 222.652,292.630 223.642,293.156 224.124 C 293.719 224.640,293.495 224.178,292.612 223.000 C 290.723 220.483,290.479 220.259,291.438 221.924 M335.000 222.000 C 334.659 222.660,334.469 223.200,334.579 223.200 C 334.689 223.200,335.059 222.660,335.400 222.000 C 335.741 221.340,335.931 220.800,335.821 220.800 C 335.711 220.800,335.341 221.340,335.000 222.000 M332.544 225.128 C 331.853 225.961,330.188 227.228,328.844 227.944 C 327.500 228.661,326.400 229.337,326.400 229.447 C 326.400 229.557,327.453 229.086,328.740 228.400 C 330.904 227.246,335.056 223.591,334.183 223.607 C 333.972 223.611,333.235 224.296,332.544 225.128 M295.120 226.067 C 296.002 227.052,300.000 229.482,300.000 229.033 C 300.000 228.914,299.304 228.461,298.453 228.027 C 297.603 227.593,296.298 226.743,295.553 226.138 C 294.229 225.062,294.220 225.060,295.120 226.067 M301.400 229.814 C 302.060 230.117,302.870 230.358,303.200 230.352 C 303.530 230.345,303.170 230.097,302.400 229.800 C 300.574 229.097,299.855 229.107,301.400 229.814 M323.600 230.200 C 322.830 230.497,322.470 230.739,322.800 230.739 C 323.130 230.739,324.030 230.497,324.800 230.200 C 325.570 229.903,325.930 229.661,325.600 229.661 C 325.270 229.661,324.370 229.903,323.600 230.200 M310.300 231.732 C 312.140 231.926,315.060 231.929,316.900 231.740 C 319.887 231.431,319.573 231.398,313.600 231.392 C 307.621 231.385,307.311 231.417,310.300 231.732 M128.187 250.900 L 125.800 253.400 128.300 251.013 C 130.622 248.795,130.983 248.400,130.687 248.400 C 130.626 248.400,129.501 249.525,128.187 250.900 M209.781 266.500 L 208.200 268.200 209.900 266.619 C 211.481 265.148,211.784 264.800,211.481 264.800 C 211.416 264.800,210.651 265.565,209.781 266.500 M140.600 279.200 C 141.906 280.520,143.065 281.600,143.175 281.600 C 143.285 281.600,142.306 280.520,141.000 279.200 C 139.694 277.880,138.535 276.800,138.425 276.800 C 138.315 276.800,139.294 277.880,140.600 279.200 M375.600 325.318 C 376.315 326.009,380.000 328.159,380.000 327.885 C 380.000 327.780,378.875 327.028,377.500 326.216 C 376.125 325.403,375.270 324.999,375.600 325.318 M380.400 328.139 C 380.400 328.582,399.051 338.808,399.833 338.793 C 400.035 338.790,398.130 337.694,395.600 336.359 C 391.209 334.042,385.763 331.037,382.100 328.911 C 381.165 328.368,380.400 328.021,380.400 328.139 M8.089 341.983 C 5.024 343.377,3.186 344.431,5.012 343.748 C 7.247 342.912,12.519 340.423,12.000 340.449 C 11.670 340.465,9.910 341.155,8.089 341.983 " stroke="none" fill="#9e96b6" fill-rule="evenodd"></path><path id="path4" d="M310.700 171.095 C 311.855 171.176,313.745 171.176,314.900 171.095 C 316.055 171.014,315.110 170.948,312.800 170.948 C 310.490 170.948,309.545 171.014,310.700 171.095 M70.600 172.291 C 92.268 172.568,109.907 172.572,109.738 172.300 C 109.636 172.135,98.898 172.041,85.876 172.092 C 72.854 172.142,65.980 172.232,70.600 172.291 M152.728 172.300 C 158.518 172.362,167.878 172.362,173.528 172.300 C 179.178 172.237,174.440 172.186,163.000 172.186 C 151.560 172.186,146.938 172.237,152.728 172.300 M190.587 172.490 C 190.480 172.770,190.440 181.280,190.500 191.400 L 190.608 209.800 190.704 191.100 L 190.800 172.400 196.994 172.400 L 203.188 172.400 203.303 184.000 L 203.418 195.600 203.409 183.900 L 203.400 172.200 197.091 172.090 C 192.264 172.005,190.737 172.099,190.587 172.490 M166.161 189.200 C 166.161 192.610,166.222 194.005,166.297 192.300 C 166.372 190.595,166.372 187.805,166.297 186.100 C 166.222 184.395,166.161 185.790,166.161 189.200 M290.524 188.600 C 290.526 189.920,290.601 190.412,290.690 189.693 C 290.779 188.974,290.777 187.894,290.686 187.293 C 290.595 186.692,290.522 187.280,290.524 188.600 M335.646 188.489 L 335.600 189.579 329.700 189.701 L 323.800 189.823 329.713 189.912 C 335.959 190.005,336.339 189.895,335.880 188.123 C 335.756 187.646,335.677 187.770,335.646 188.489 M263.630 208.800 C 263.628 209.376,264.757 211.666,264.786 211.146 C 264.794 211.006,264.537 210.286,264.216 209.546 C 263.894 208.806,263.631 208.470,263.630 208.800 M288.501 212.600 C 288.505 213.480,288.587 213.793,288.683 213.295 C 288.779 212.798,288.775 212.078,288.675 211.695 C 288.575 211.313,288.496 211.720,288.501 212.600 M264.828 211.800 C 264.828 212.020,265.086 212.650,265.400 213.200 C 265.714 213.750,265.972 214.020,265.972 213.800 C 265.972 213.580,265.714 212.950,265.400 212.400 C 265.086 211.850,264.828 211.580,264.828 211.800 M337.714 213.400 C 337.717 214.500,337.795 214.903,337.887 214.295 C 337.979 213.686,337.977 212.786,337.882 212.295 C 337.787 211.803,337.711 212.300,337.714 213.400 M266.038 214.600 C 266.038 214.820,266.561 215.990,267.200 217.200 C 267.839 218.410,268.362 219.220,268.362 219.000 C 268.362 218.780,267.839 217.610,267.200 216.400 C 266.561 215.190,266.038 214.380,266.038 214.600 M256.721 219.899 C 258.988 219.970,262.588 219.970,264.721 219.898 C 266.855 219.826,265.000 219.768,260.600 219.768 C 256.200 219.768,254.455 219.827,256.721 219.899 M273.320 219.898 C 275.255 219.972,278.315 219.971,280.120 219.897 C 281.924 219.823,280.340 219.763,276.600 219.764 C 272.860 219.764,271.384 219.825,273.320 219.898 M293.800 225.200 C 294.659 226.080,295.452 226.800,295.562 226.800 C 295.672 226.800,295.059 226.080,294.200 225.200 C 293.341 224.320,292.548 223.600,292.438 223.600 C 292.328 223.600,292.941 224.320,293.800 225.200 M332.581 225.700 L 331.000 227.400 332.700 225.819 C 334.281 224.348,334.584 224.000,334.281 224.000 C 334.216 224.000,333.451 224.765,332.581 225.700 M82.700 230.698 C 84.515 230.772,87.485 230.772,89.300 230.698 C 91.115 230.623,89.630 230.563,86.000 230.563 C 82.370 230.563,80.885 230.623,82.700 230.698 M119.300 230.697 C 121.005 230.772,123.795 230.772,125.500 230.697 C 127.205 230.622,125.810 230.561,122.400 230.561 C 118.990 230.561,117.595 230.622,119.300 230.697 M250.873 230.699 C 255.204 230.764,262.404 230.764,266.873 230.700 C 271.343 230.635,267.800 230.582,259.000 230.582 C 250.200 230.582,246.543 230.635,250.873 230.699 M278.512 230.695 C 279.564 230.777,281.184 230.776,282.112 230.692 C 283.040 230.608,282.180 230.541,280.200 230.542 C 278.220 230.543,277.460 230.612,278.512 230.695 M308.900 231.876 C 309.285 231.976,309.915 231.976,310.300 231.876 C 310.685 231.775,310.370 231.693,309.600 231.693 C 308.830 231.693,308.515 231.775,308.900 231.876 M316.900 231.876 C 317.285 231.976,317.915 231.976,318.300 231.876 C 318.685 231.775,318.370 231.693,317.600 231.693 C 316.830 231.693,316.515 231.775,316.900 231.876 M131.375 245.700 L 130.200 247.000 131.500 245.825 C 132.712 244.730,132.984 244.400,132.675 244.400 C 132.606 244.400,132.021 244.985,131.375 245.700 M126.400 250.896 C 124.310 252.908,123.500 253.814,124.600 252.909 C 126.569 251.290,130.746 247.182,130.385 247.219 C 130.283 247.230,128.490 248.885,126.400 250.896 M118.992 258.500 L 115.400 262.200 119.100 258.608 C 122.536 255.272,122.982 254.800,122.692 254.800 C 122.632 254.800,120.967 256.465,118.992 258.500 M296.800 259.400 C 298.881 261.490,300.674 263.200,300.784 263.200 C 300.894 263.200,299.281 261.490,297.200 259.400 C 295.119 257.310,293.326 255.600,293.216 255.600 C 293.106 255.600,294.719 257.310,296.800 259.400 M112.191 265.700 L 109.000 269.000 112.300 265.809 C 115.365 262.846,115.782 262.400,115.491 262.400 C 115.430 262.400,113.945 263.885,112.191 265.700 M310.000 273.000 C 315.166 278.170,319.484 282.400,319.594 282.400 C 319.704 282.400,315.566 278.170,310.400 273.000 C 305.234 267.830,300.916 263.600,300.806 263.600 C 300.696 263.600,304.834 267.830,310.000 273.000 M170.189 275.700 L 167.400 278.600 170.300 275.811 C 172.994 273.220,173.383 272.800,173.089 272.800 C 173.028 272.800,171.723 274.105,170.189 275.700 M273.160 278.700 C 271.997 280.185,270.136 282.405,269.023 283.633 C 267.036 285.826,267.043 285.822,269.401 283.433 C 271.684 281.119,275.857 276.000,275.460 276.000 C 275.357 276.000,274.322 277.215,273.160 278.700 M220.052 279.300 C 223.941 285.082,229.687 293.207,230.043 293.426 C 230.254 293.557,228.905 291.504,227.046 288.865 C 225.187 286.226,222.566 282.432,221.222 280.433 C 219.879 278.435,218.687 276.800,218.575 276.800 C 218.462 276.800,219.127 277.925,220.052 279.300 M323.600 286.200 C 325.681 288.290,327.474 290.000,327.584 290.000 C 327.694 290.000,326.081 288.290,324.000 286.200 C 321.919 284.110,320.126 282.400,320.016 282.400 C 319.906 282.400,321.519 284.110,323.600 286.200 M261.594 291.500 L 256.600 296.600 261.700 291.606 C 266.437 286.967,266.981 286.400,266.694 286.400 C 266.636 286.400,264.341 288.695,261.594 291.500 M330.000 292.200 C 331.195 293.410,332.263 294.400,332.373 294.400 C 332.483 294.400,331.595 293.410,330.400 292.200 C 329.205 290.990,328.137 290.000,328.027 290.000 C 327.917 290.000,328.805 290.990,330.000 292.200 M232.600 296.400 C 233.906 297.720,235.065 298.800,235.175 298.800 C 235.285 298.800,234.306 297.720,233.000 296.400 C 231.694 295.080,230.535 294.000,230.425 294.000 C 230.315 294.000,231.294 295.080,232.600 296.400 " stroke="none" fill="#aba4bc" fill-rule="evenodd"></path></g></svg>