<svg id="svg" version="1.1" xmlns="http://www.w3.org/2000/svg" xmlns:xlink="http://www.w3.org/1999/xlink" width="400" height="400" viewBox="0, 0, 400,400"><g id="svgg"><path id="path0" d="M292.600 61.848 C 287.980 67.022,282.310 73.374,280.000 75.963 C 277.690 78.553,274.541 82.075,273.002 83.790 L 270.204 86.909 273.802 90.248 C 275.781 92.084,277.525 93.589,277.678 93.593 C 277.831 93.597,280.419 90.855,283.428 87.500 C 286.438 84.145,289.025 81.351,289.177 81.291 C 289.425 81.194,300.767 91.219,303.800 94.216 C 306.786 97.167,323.322 111.813,323.789 111.921 C 324.076 111.987,326.144 110.024,328.384 107.559 L 332.458 103.076 331.529 102.198 C 329.457 100.240,314.797 87.202,312.000 84.830 C 301.478 75.904,297.530 71.929,298.310 71.044 C 298.720 70.580,301.284 67.699,304.009 64.641 L 308.964 59.083 307.738 58.041 C 307.063 57.469,305.341 55.965,303.911 54.700 C 302.481 53.435,301.241 52.409,301.156 52.420 C 301.070 52.432,297.220 56.674,292.600 61.848 M261.607 96.487 L 257.535 101.000 259.872 103.200 C 261.158 104.410,265.445 108.280,269.399 111.800 C 273.354 115.320,278.122 119.642,279.995 121.405 C 284.069 125.239,297.707 137.504,299.018 138.513 L 299.945 139.227 303.973 134.752 C 306.188 132.291,308.000 130.145,308.000 129.983 C 308.000 129.703,292.856 116.022,286.996 111.008 C 285.458 109.693,281.590 106.270,278.400 103.403 C 275.210 100.536,271.043 96.791,269.140 95.082 L 265.679 91.974 261.607 96.487 M248.344 111.300 C 241.803 118.516,242.051 118.170,242.218 119.864 C 242.301 120.709,242.558 123.830,242.788 126.800 C 243.388 134.551,244.367 145.775,244.659 148.266 C 245.019 151.324,244.956 151.287,235.486 142.758 L 227.000 135.117 224.481 137.858 C 223.095 139.366,221.255 141.429,220.391 142.443 L 218.821 144.285 223.669 148.643 C 226.335 151.039,230.822 155.070,233.640 157.600 C 236.458 160.130,240.710 164.000,243.089 166.200 C 250.610 173.155,260.847 182.200,261.198 182.200 C 261.690 182.200,269.205 173.576,269.173 173.047 C 269.159 172.801,266.193 169.990,262.583 166.800 C 255.289 160.355,255.795 161.208,255.413 154.700 C 255.196 150.999,255.224 150.800,255.978 150.800 C 256.890 150.800,264.105 151.763,269.400 152.591 C 281.153 154.430,285.607 154.892,286.270 154.344 C 288.074 152.851,296.055 143.501,295.751 143.237 C 295.558 143.069,291.800 142.535,287.400 142.051 C 283.000 141.566,277.960 140.995,276.200 140.782 C 270.665 140.112,265.967 139.618,260.835 139.167 C 253.692 138.539,254.178 138.930,253.843 133.534 C 252.757 116.018,252.408 110.037,252.404 108.900 C 252.398 107.007,252.049 107.214,248.344 111.300 M209.705 158.581 C 193.414 162.281,183.860 183.898,194.024 194.062 C 200.779 200.817,207.461 200.036,221.508 190.847 C 230.302 185.094,233.012 184.272,236.049 186.435 C 244.730 192.616,228.672 209.395,219.822 203.389 C 217.850 202.051,218.187 201.858,213.789 206.833 L 209.869 211.266 211.035 212.232 C 221.440 220.861,237.712 215.034,246.312 199.600 C 255.282 183.501,241.235 166.893,225.412 174.888 C 224.525 175.336,221.190 177.450,218.000 179.585 C 207.537 186.590,204.991 187.593,202.459 185.706 C 194.937 180.099,206.373 165.961,214.855 170.382 C 217.005 171.502,216.703 171.667,220.762 167.156 C 225.001 162.445,224.962 162.582,222.499 160.912 C 218.753 158.373,214.242 157.551,209.705 158.581 M161.833 207.658 C 159.652 210.097,157.869 212.297,157.871 212.547 C 157.874 212.796,159.999 217.050,162.595 222.000 C 165.190 226.950,168.659 233.700,170.305 237.000 C 173.658 243.724,185.219 266.090,185.502 266.400 C 185.687 266.603,189.030 263.110,192.287 259.312 L 194.077 257.223 190.852 251.323 C 187.703 245.562,187.644 245.404,188.350 244.611 C 192.783 239.639,200.664 230.842,201.199 230.270 C 201.856 229.568,202.111 229.639,208.041 232.173 L 214.200 234.806 215.800 233.051 C 221.028 227.318,222.897 225.165,222.757 225.038 C 222.555 224.854,207.345 218.856,198.800 215.590 C 195.170 214.203,186.468 210.848,179.462 208.134 C 172.456 205.420,166.516 203.205,166.262 203.211 C 166.008 203.218,164.015 205.219,161.833 207.658 M178.862 219.646 C 182.018 220.991,184.780 222.224,185.000 222.385 C 185.220 222.547,186.840 223.265,188.600 223.980 C 190.360 224.696,191.953 225.426,192.141 225.601 C 192.443 225.885,183.365 236.401,182.819 236.400 C 182.699 236.399,181.832 235.004,180.894 233.300 C 179.956 231.595,178.330 228.670,177.281 226.800 C 170.951 215.517,170.798 216.208,178.862 219.646 M144.287 227.133 C 142.575 229.040,135.690 236.694,128.987 244.142 C 122.284 251.589,116.800 257.900,116.800 258.166 C 116.800 258.708,123.348 264.534,124.165 264.719 C 124.454 264.784,127.099 262.127,130.045 258.814 C 132.990 255.500,135.610 252.837,135.867 252.895 C 136.123 252.953,141.151 257.320,147.040 262.600 C 152.929 267.880,160.508 274.675,163.884 277.700 C 167.260 280.725,170.242 283.186,170.511 283.168 C 170.955 283.139,177.808 275.791,178.486 274.617 C 178.672 274.295,176.290 271.896,171.686 267.768 C 167.789 264.274,163.880 260.760,163.000 259.960 C 162.120 259.159,157.620 255.117,153.000 250.977 C 143.097 242.102,143.916 243.355,146.277 240.688 C 147.335 239.493,149.798 236.671,151.750 234.417 L 155.300 230.319 154.350 229.407 C 151.938 227.094,147.894 223.603,147.660 223.633 C 147.517 223.651,145.999 225.226,144.287 227.133 " stroke="none" fill="#756e9d" fill-rule="evenodd"></path><path id="path1" d="M323.196 73.369 C 321.072 75.472,319.520 76.800,319.187 76.800 C 318.974 76.800,318.800 76.966,318.800 77.169 C 318.800 77.372,318.305 78.055,317.700 78.687 C 317.095 79.318,315.568 80.932,314.306 82.273 L 312.012 84.712 320.869 92.656 C 325.740 97.025,330.351 101.146,331.115 101.813 L 332.504 103.025 328.407 107.533 C 326.154 110.013,324.079 111.987,323.795 111.921 C 323.511 111.854,318.815 107.788,313.358 102.884 L 303.437 93.967 301.544 95.941 C 300.503 97.027,298.805 98.880,297.772 100.058 C 292.806 105.718,290.860 107.866,289.232 109.486 L 287.464 111.246 288.432 112.162 C 288.964 112.665,293.585 116.815,298.700 121.383 C 303.815 125.952,308.000 129.822,308.000 129.983 C 308.000 131.080,299.883 139.204,299.266 138.725 C 298.588 138.199,295.746 135.656,284.936 125.902 L 278.873 120.430 277.336 122.272 C 275.719 124.210,273.474 126.665,267.893 132.600 C 266.030 134.580,263.942 136.854,263.252 137.654 L 261.997 139.109 263.699 139.355 C 264.634 139.491,267.110 139.780,269.200 139.998 C 271.290 140.216,274.440 140.569,276.200 140.782 C 277.960 140.995,283.000 141.566,287.400 142.051 C 291.800 142.535,295.558 143.069,295.751 143.237 C 296.055 143.501,288.074 152.851,286.270 154.344 C 285.607 154.892,281.153 154.430,269.400 152.591 C 264.105 151.763,256.890 150.800,255.978 150.800 C 255.224 150.800,255.196 150.999,255.413 154.700 C 255.795 161.208,255.289 160.355,262.583 166.800 C 266.193 169.990,269.159 172.804,269.173 173.052 C 269.194 173.397,264.494 179.031,261.578 182.158 C 261.240 182.520,260.305 181.727,246.886 169.698 L 239.633 163.195 238.027 164.898 C 237.143 165.834,236.416 166.804,236.410 167.053 C 236.405 167.303,236.042 167.600,235.605 167.715 C 235.167 167.829,234.632 168.390,234.415 168.961 C 234.198 169.533,233.790 170.015,233.510 170.034 C 233.229 170.052,232.436 170.727,231.747 171.534 L 230.493 173.000 234.147 173.013 C 246.628 173.055,253.155 187.319,246.312 199.600 C 237.712 215.034,221.440 220.861,211.035 212.232 L 209.869 211.266 213.789 206.833 C 218.187 201.858,217.850 202.051,219.822 203.389 C 228.672 209.395,244.730 192.616,236.049 186.435 C 233.030 184.285,230.296 185.100,221.707 190.711 C 215.387 194.840,209.603 198.000,208.366 198.000 C 207.948 198.000,207.110 198.575,206.503 199.278 C 205.348 200.616,201.001 205.269,196.124 210.389 L 193.247 213.409 199.324 215.760 C 209.038 219.518,222.586 224.882,222.757 225.038 C 222.897 225.165,221.028 227.318,215.800 233.051 L 214.200 234.806 208.041 232.173 C 202.111 229.639,201.856 229.568,201.199 230.270 C 200.664 230.842,192.783 239.639,188.350 244.611 C 187.644 245.404,187.703 245.562,190.852 251.323 L 194.077 257.223 192.287 259.312 C 189.012 263.131,185.687 266.603,185.496 266.400 C 185.392 266.290,182.026 259.855,178.016 252.100 C 171.563 239.621,170.000 237.059,170.000 238.959 C 170.000 239.241,169.415 240.012,168.700 240.672 C 167.985 241.332,166.067 243.341,164.439 245.136 C 160.756 249.196,161.608 249.403,154.958 242.830 L 149.322 237.260 146.843 240.077 C 145.480 241.626,144.418 243.019,144.482 243.172 C 144.547 243.324,148.380 246.836,153.000 250.977 C 157.620 255.117,162.120 259.159,163.000 259.960 C 163.880 260.760,167.789 264.274,171.686 267.768 C 176.290 271.896,178.672 274.295,178.486 274.617 C 177.808 275.791,170.955 283.139,170.511 283.168 C 170.242 283.186,167.260 280.725,163.884 277.700 C 160.508 274.675,152.929 267.880,147.040 262.600 C 141.151 257.320,136.123 252.953,135.867 252.895 C 135.610 252.837,132.990 255.500,130.045 258.814 C 127.099 262.127,124.454 264.784,124.165 264.719 C 123.339 264.532,116.800 258.705,116.800 258.156 C 116.800 257.702,123.188 250.428,136.697 235.500 C 139.633 232.255,141.882 229.600,141.693 229.600 C 141.341 229.600,140.339 228.667,129.506 218.252 C 126.044 214.923,121.405 210.490,119.197 208.400 C 116.990 206.310,113.872 203.340,112.268 201.800 C 110.664 200.260,105.878 195.670,101.631 191.600 C 97.384 187.530,92.877 183.210,91.614 182.000 C 88.284 178.807,84.439 175.423,83.952 175.255 C 83.506 175.102,77.237 181.367,70.600 188.600 C 68.400 190.998,65.956 193.599,65.168 194.380 C 64.380 195.161,62.760 196.954,61.568 198.365 C 60.376 199.776,59.040 201.313,58.600 201.781 C 58.160 202.249,55.820 204.756,53.400 207.352 C 50.980 209.948,48.055 213.078,46.900 214.308 C 45.745 215.538,44.800 216.782,44.800 217.072 C 44.800 217.362,44.561 217.600,44.270 217.600 C 43.626 217.600,42.000 219.266,42.000 219.926 C 42.000 220.187,41.820 220.400,41.600 220.400 C 41.086 220.400,39.600 221.879,39.600 222.391 C 39.600 222.605,40.750 223.910,42.155 225.291 C 45.831 228.900,48.509 231.547,49.200 232.252 C 49.530 232.589,52.167 235.145,55.060 237.932 C 57.953 240.720,64.523 247.075,69.660 252.056 C 74.797 257.036,79.788 261.806,80.751 262.656 C 81.714 263.505,85.269 266.900,88.651 270.200 C 92.034 273.500,95.476 276.803,96.300 277.540 C 97.125 278.277,100.230 281.250,103.200 284.146 C 108.048 288.873,123.488 303.704,127.827 307.800 C 130.170 310.012,132.717 312.114,133.703 312.649 C 135.702 313.734,162.675 340.419,163.220 341.851 C 163.800 343.378,166.495 343.224,167.017 341.635 C 167.415 340.424,169.551 337.896,175.000 332.185 C 176.760 330.341,178.830 328.025,179.600 327.040 C 180.370 326.055,181.221 325.238,181.491 325.224 C 181.761 325.211,182.300 324.714,182.690 324.119 C 183.079 323.525,183.758 322.660,184.199 322.197 C 189.173 316.974,193.825 311.786,193.929 311.347 C 194.000 311.046,194.295 310.800,194.583 310.800 C 194.872 310.800,195.419 310.326,195.798 309.746 C 196.178 309.167,197.449 307.682,198.623 306.446 C 199.796 305.211,201.058 303.863,201.427 303.451 C 201.797 303.039,205.451 299.117,209.549 294.736 C 213.647 290.355,217.720 285.891,218.600 284.816 C 219.480 283.741,221.100 281.966,222.200 280.871 C 223.300 279.776,224.470 278.527,224.800 278.095 C 225.130 277.662,227.470 275.098,230.000 272.395 C 232.530 269.693,235.140 266.900,235.800 266.189 C 236.460 265.478,237.922 263.930,239.048 262.748 C 240.174 261.567,242.082 259.430,243.287 258.000 C 244.492 256.570,246.450 254.394,247.639 253.164 C 248.827 251.935,251.780 248.792,254.200 246.180 C 256.620 243.568,259.005 241.044,259.500 240.570 C 259.995 240.096,260.400 239.532,260.400 239.318 C 260.400 239.103,261.570 237.803,263.000 236.430 C 264.430 235.057,265.600 233.834,265.600 233.713 C 265.600 233.591,266.005 233.101,266.500 232.623 C 267.615 231.546,276.753 221.786,279.442 218.800 C 280.532 217.590,281.868 216.119,282.412 215.532 C 282.955 214.944,283.940 213.852,284.600 213.104 C 288.041 209.207,299.590 196.823,300.900 195.626 C 301.505 195.074,302.000 194.458,302.000 194.257 C 302.000 194.057,302.990 192.994,304.200 191.896 C 305.410 190.798,306.400 189.767,306.400 189.605 C 306.400 189.266,309.119 186.203,312.600 182.620 C 315.553 179.580,323.139 171.409,324.442 169.865 C 324.969 169.240,325.850 168.238,326.400 167.638 C 329.655 164.084,336.034 157.211,337.400 155.784 C 343.126 149.805,347.852 144.613,348.161 143.961 C 348.360 143.543,348.765 143.200,349.061 143.200 C 349.358 143.200,349.600 143.046,349.600 142.858 C 349.600 142.671,350.005 142.070,350.500 141.524 C 354.383 137.240,355.935 135.551,360.353 130.800 C 363.115 127.830,365.695 125.165,366.087 124.877 C 366.479 124.590,366.800 124.184,366.800 123.976 C 366.800 123.768,367.520 122.947,368.400 122.152 C 369.280 121.357,370.000 120.501,370.000 120.250 C 370.000 119.998,370.360 119.568,370.800 119.293 C 371.824 118.653,371.817 117.707,370.780 116.642 C 368.974 114.788,367.200 112.671,367.200 112.371 C 367.200 112.197,366.843 111.941,366.407 111.802 C 365.970 111.664,364.927 110.886,364.089 110.075 C 363.251 109.264,359.704 105.900,356.205 102.600 C 352.707 99.300,348.958 95.742,347.875 94.693 C 346.792 93.645,345.652 92.645,345.341 92.471 C 345.031 92.298,343.201 90.635,341.274 88.778 C 325.006 73.091,324.184 72.391,323.196 73.369 M184.731 222.754 C 184.659 222.941,183.340 224.490,181.800 226.197 C 180.260 227.905,179.000 229.414,179.000 229.551 C 179.000 229.970,182.585 236.399,182.819 236.400 C 183.372 236.401,192.441 225.882,192.141 225.589 C 191.953 225.407,190.900 224.899,189.800 224.462 C 188.700 224.025,187.139 223.385,186.331 223.041 C 185.523 222.697,184.803 222.568,184.731 222.754 " stroke="none" fill="#94c3e3" fill-rule="evenodd"></path><path id="path2" d="M0.000 200.000 L 0.000 400.000 200.000 400.000 L 400.000 400.000 400.000 200.000 L 400.000 0.000 200.000 0.000 L 0.000 0.000 0.000 200.000 M305.400 55.293 C 307.380 57.092,309.000 58.787,309.000 59.059 C 309.000 59.331,306.604 62.276,303.676 65.604 C 300.747 68.932,298.407 71.801,298.476 71.981 C 298.544 72.160,300.400 73.889,302.600 75.824 C 304.800 77.759,307.744 80.423,309.143 81.745 L 311.686 84.149 316.567 79.175 C 324.270 71.324,323.978 71.411,328.202 75.700 C 329.772 77.295,331.674 79.120,332.429 79.756 C 333.899 80.995,342.701 89.301,350.492 96.800 C 353.120 99.330,355.527 101.545,355.840 101.723 C 356.153 101.900,357.802 103.362,359.505 104.971 C 361.207 106.581,363.476 108.686,364.546 109.649 C 372.669 116.957,373.001 117.705,369.700 121.275 C 364.253 127.166,362.548 129.002,361.722 129.870 C 361.239 130.377,360.699 131.048,360.522 131.360 C 360.345 131.673,358.850 133.352,357.200 135.091 C 354.349 138.096,346.139 146.890,344.000 149.229 C 343.450 149.831,342.342 151.105,341.537 152.061 C 340.732 153.018,339.202 154.715,338.137 155.834 C 337.072 156.953,335.044 159.113,333.631 160.634 C 330.989 163.478,322.608 172.423,318.000 177.314 C 316.570 178.833,315.231 180.373,315.025 180.737 C 314.819 181.102,313.739 182.322,312.625 183.450 C 311.511 184.577,309.160 187.087,307.400 189.028 C 305.640 190.969,303.300 193.497,302.200 194.645 C 296.938 200.138,295.600 201.601,295.600 201.862 C 295.600 202.018,294.205 203.602,292.500 205.382 C 290.795 207.162,288.228 209.875,286.796 211.409 C 285.364 212.944,281.719 216.831,278.696 220.048 C 275.673 223.264,273.200 226.033,273.200 226.202 C 273.200 226.370,272.795 226.897,272.300 227.372 C 271.805 227.847,269.060 230.738,266.200 233.797 C 263.340 236.855,260.730 239.637,260.400 239.980 C 259.012 241.421,254.830 246.034,252.600 248.585 C 251.280 250.095,249.210 252.360,248.000 253.618 C 246.790 254.876,244.360 257.502,242.600 259.453 C 240.840 261.404,238.946 263.450,238.390 264.000 C 237.835 264.550,235.774 266.800,233.812 269.000 C 231.849 271.200,227.983 275.426,225.222 278.391 C 216.079 288.205,213.426 291.076,210.753 294.053 C 207.280 297.918,202.888 302.678,199.357 306.400 C 197.792 308.050,195.901 310.110,195.156 310.978 C 194.410 311.846,192.810 313.586,191.600 314.845 C 190.390 316.104,188.500 318.168,187.400 319.432 C 185.275 321.874,181.165 326.287,175.600 332.102 C 173.730 334.056,172.130 335.852,172.045 336.094 C 171.959 336.335,170.834 337.607,169.545 338.921 C 168.255 340.235,167.200 341.609,167.200 341.975 C 167.200 342.989,166.373 343.600,165.000 343.600 C 163.635 343.600,162.800 342.990,162.800 341.993 C 162.800 340.811,136.076 314.766,132.724 312.682 C 132.132 312.314,129.371 309.805,126.588 307.107 C 123.805 304.408,121.184 302.071,120.764 301.913 C 120.344 301.755,120.000 301.408,120.000 301.141 C 120.000 300.660,117.328 297.998,116.850 298.003 C 116.712 298.004,114.800 296.231,112.600 294.063 C 110.400 291.895,106.170 287.780,103.200 284.919 C 79.324 261.916,73.789 256.551,72.643 255.300 C 71.989 254.585,71.216 254.000,70.926 254.000 C 70.637 254.000,70.400 253.730,70.400 253.400 C 70.400 253.070,70.243 252.800,70.051 252.800 C 69.859 252.800,67.924 251.072,65.751 248.959 C 63.578 246.847,60.495 243.877,58.900 242.360 C 57.305 240.843,56.000 239.422,56.000 239.201 C 56.000 238.981,55.812 238.800,55.583 238.800 C 55.353 238.800,53.297 236.955,51.013 234.700 C 48.730 232.445,45.137 228.940,43.031 226.911 C 40.924 224.883,39.200 222.936,39.200 222.585 C 39.200 221.686,39.945 220.400,40.466 220.400 C 40.895 220.400,44.398 216.860,44.402 216.423 C 44.403 216.300,45.317 215.319,46.433 214.243 C 47.548 213.166,49.551 211.006,50.883 209.443 C 52.215 207.879,53.776 206.139,54.352 205.577 C 54.928 205.014,56.750 203.045,58.400 201.202 C 61.897 197.297,62.323 196.839,66.700 192.285 C 68.515 190.397,70.000 188.732,70.000 188.586 C 70.000 188.440,70.887 187.394,71.972 186.260 C 80.827 177.006,83.107 174.800,83.813 174.801 C 84.631 174.801,86.444 176.421,95.718 185.436 C 98.754 188.386,101.313 190.800,101.405 190.800 C 101.498 190.800,102.176 191.385,102.913 192.100 C 103.650 192.815,108.007 197.000,112.596 201.400 C 117.185 205.800,123.183 211.560,125.927 214.200 C 128.670 216.840,132.194 220.217,133.757 221.704 C 137.691 225.446,137.880 225.630,139.322 227.121 C 141.642 229.520,141.662 229.517,144.666 226.200 C 147.863 222.670,147.653 222.714,150.200 225.036 C 151.300 226.039,152.965 227.498,153.900 228.278 C 156.074 230.092,156.038 230.602,153.568 233.015 C 152.451 234.107,151.178 235.496,150.740 236.102 L 149.943 237.204 155.471 242.606 L 161.000 248.008 165.296 243.504 C 169.554 239.039,170.452 237.650,169.699 236.695 C 169.485 236.423,166.576 230.840,163.236 224.288 L 157.164 212.376 161.460 207.488 C 163.822 204.800,165.793 202.542,165.839 202.472 C 165.885 202.401,168.505 203.372,171.661 204.628 C 174.818 205.885,178.480 207.316,179.800 207.809 C 181.120 208.303,184.540 209.625,187.400 210.748 C 193.925 213.311,193.399 213.450,197.785 208.000 C 198.404 207.230,200.532 204.890,202.513 202.800 L 206.115 199.000 203.138 198.754 C 194.249 198.021,187.637 189.407,189.177 180.565 C 192.245 162.949,214.416 151.078,224.347 161.736 L 225.294 162.752 221.187 167.376 C 218.928 169.919,217.009 172.000,216.924 172.000 C 216.838 172.000,216.227 171.600,215.567 171.112 C 208.569 165.939,195.800 178.863,202.155 184.686 C 204.906 187.208,206.566 186.636,217.398 179.434 C 222.856 175.806,225.757 174.138,227.697 173.513 C 230.495 172.612,238.600 165.000,238.600 163.274 C 238.600 162.925,236.080 160.401,233.000 157.665 C 224.977 150.537,218.621 144.704,218.467 144.328 C 218.291 143.899,226.445 134.794,226.982 134.820 C 227.212 134.832,231.090 138.140,235.600 142.172 C 240.110 146.204,243.862 149.339,243.938 149.139 C 244.088 148.741,243.411 139.233,242.803 133.200 C 241.696 122.224,241.522 118.446,242.086 117.641 C 243.758 115.255,252.169 106.409,252.475 106.715 C 252.670 106.910,253.088 112.095,253.404 118.235 C 253.719 124.376,254.094 131.317,254.238 133.660 L 254.498 137.920 256.749 138.176 C 257.987 138.317,259.512 138.533,260.137 138.656 C 261.367 138.898,261.003 139.232,269.320 130.264 C 271.124 128.318,273.914 125.348,275.521 123.664 L 278.441 120.600 276.651 119.000 C 264.613 108.238,257.200 101.392,257.200 101.036 C 257.200 100.486,265.174 91.600,265.667 91.600 C 265.868 91.600,267.959 93.345,270.316 95.478 C 272.672 97.611,275.325 99.996,276.212 100.778 C 277.098 101.560,279.586 103.812,281.741 105.783 C 287.329 110.894,286.947 110.705,288.656 109.205 C 289.443 108.513,290.813 107.105,291.701 106.074 C 292.588 105.043,294.426 103.030,295.785 101.600 C 303.313 93.678,303.030 94.048,302.175 93.238 C 298.591 89.846,289.579 82.000,289.265 82.000 C 289.049 82.000,288.384 82.585,287.788 83.300 C 287.192 84.015,285.185 86.255,283.328 88.277 C 281.471 90.300,279.589 92.415,279.147 92.977 C 278.006 94.427,277.733 94.328,274.182 91.173 C 268.917 86.495,269.215 87.286,271.670 84.515 C 275.631 80.044,290.167 63.801,290.389 63.600 C 290.509 63.490,292.917 60.835,295.738 57.700 C 301.775 50.993,300.907 51.210,305.400 55.293 M172.934 217.915 C 173.024 218.072,174.314 220.450,175.800 223.200 C 177.287 225.950,178.589 228.290,178.693 228.400 C 178.798 228.510,180.113 227.251,181.617 225.602 C 183.747 223.266,184.222 222.532,183.769 222.278 C 182.471 221.552,172.783 217.650,172.934 217.915 " stroke="none" fill="#f5f4f4" fill-rule="evenodd"></path><path id="path3" d="M294.975 58.500 L 293.800 59.800 295.100 58.625 C 295.815 57.979,296.400 57.394,296.400 57.325 C 296.400 57.016,296.070 57.288,294.975 58.500 M287.775 66.500 L 286.600 67.800 287.900 66.625 C 288.615 65.979,289.200 65.394,289.200 65.325 C 289.200 65.016,288.870 65.288,287.775 66.500 M299.978 69.500 L 298.600 71.000 300.100 69.622 C 301.496 68.338,301.784 68.000,301.478 68.000 C 301.412 68.000,300.737 68.675,299.978 69.500 M281.375 73.700 L 280.200 75.000 281.500 73.825 C 282.215 73.179,282.800 72.594,282.800 72.525 C 282.800 72.216,282.470 72.488,281.375 73.700 M322.220 73.534 C 321.792 73.900,319.289 76.399,316.659 79.086 C 314.029 81.773,311.697 83.860,311.477 83.724 C 311.251 83.584,311.201 83.677,311.362 83.938 C 311.850 84.728,312.289 84.471,314.477 82.111 C 315.645 80.852,317.095 79.308,317.700 78.680 C 318.305 78.052,318.800 77.372,318.800 77.169 C 318.800 76.966,318.974 76.800,319.187 76.800 C 319.399 76.800,320.203 76.170,320.973 75.400 C 321.743 74.630,322.540 74.000,322.744 74.000 C 322.948 74.000,323.218 73.730,323.345 73.400 C 323.638 72.635,323.213 72.685,322.220 73.534 M328.624 76.710 C 336.265 84.097,344.874 92.201,345.389 92.493 C 345.673 92.655,346.792 93.645,347.875 94.693 C 348.958 95.742,352.707 99.300,356.205 102.600 C 359.704 105.900,363.251 109.264,364.089 110.075 C 364.927 110.886,365.970 111.664,366.407 111.802 C 366.843 111.941,367.200 112.197,367.200 112.371 C 367.200 112.671,368.974 114.788,370.780 116.642 C 371.817 117.707,371.824 118.653,370.800 119.293 C 370.360 119.568,370.000 119.998,370.000 120.250 C 370.000 120.501,369.280 121.357,368.400 122.152 C 367.520 122.947,366.800 123.768,366.800 123.976 C 366.800 124.184,366.481 124.590,366.091 124.877 C 365.701 125.165,364.048 126.840,362.417 128.600 C 360.786 130.360,358.180 133.158,356.626 134.818 C 352.639 139.077,350.123 141.877,349.770 142.448 C 349.124 143.494,351.132 141.722,352.997 139.600 C 354.061 138.390,356.117 136.172,357.566 134.671 C 359.015 133.170,360.345 131.683,360.522 131.367 C 360.699 131.051,361.239 130.377,361.722 129.870 C 362.548 129.002,364.253 127.166,369.700 121.275 C 373.001 117.705,372.669 116.957,364.546 109.649 C 363.476 108.686,361.207 106.581,359.505 104.971 C 357.802 103.362,356.153 101.900,355.840 101.723 C 355.527 101.545,353.120 99.330,350.492 96.800 C 342.701 89.301,333.899 80.995,332.429 79.756 C 331.674 79.120,329.772 77.295,328.202 75.700 C 326.631 74.105,325.178 72.805,324.973 72.810 C 324.768 72.816,326.411 74.571,328.624 76.710 M299.600 73.325 C 299.600 73.394,300.185 73.979,300.900 74.625 L 302.200 75.800 301.025 74.500 C 299.930 73.288,299.600 73.016,299.600 73.325 M302.800 76.125 C 302.800 76.194,303.385 76.779,304.100 77.425 L 305.400 78.600 304.225 77.300 C 303.130 76.088,302.800 75.816,302.800 76.125 M306.400 79.325 C 306.400 79.394,306.985 79.979,307.700 80.625 L 309.000 81.800 307.825 80.500 C 306.730 79.288,306.400 79.016,306.400 79.325 M273.775 82.100 L 272.600 83.400 273.900 82.225 C 274.615 81.579,275.200 80.994,275.200 80.925 C 275.200 80.616,274.870 80.888,273.775 82.100 M263.978 93.100 L 262.600 94.600 264.100 93.222 C 265.496 91.938,265.784 91.600,265.478 91.600 C 265.412 91.600,264.737 92.275,263.978 93.100 M300.589 96.500 C 299.305 97.875,297.144 100.170,295.785 101.600 C 294.426 103.030,292.588 105.043,291.701 106.074 C 289.196 108.983,287.270 110.544,286.677 110.145 C 286.394 109.955,286.484 110.097,286.877 110.460 C 287.791 111.305,289.142 110.011,297.794 100.000 C 298.840 98.790,299.989 97.530,300.348 97.200 C 301.473 96.165,303.359 94.000,303.136 94.000 C 303.018 94.000,301.872 95.125,300.589 96.500 M270.000 95.325 C 270.000 95.394,270.585 95.979,271.300 96.625 L 272.600 97.800 271.425 96.500 C 270.330 95.288,270.000 95.016,270.000 95.325 M252.901 111.400 C 252.905 112.280,252.987 112.593,253.083 112.095 C 253.179 111.598,253.175 110.878,253.075 110.495 C 252.975 110.113,252.896 110.520,252.901 111.400 M274.800 117.400 C 275.546 118.170,276.247 118.800,276.357 118.800 C 276.467 118.800,275.946 118.170,275.200 117.400 C 274.454 116.630,273.753 116.000,273.643 116.000 C 273.533 116.000,274.054 116.630,274.800 117.400 M274.395 124.878 C 270.320 129.257,264.588 135.354,262.540 137.487 C 261.847 138.209,261.516 138.800,261.804 138.800 C 262.093 138.800,262.815 138.215,263.409 137.500 C 264.003 136.785,266.017 134.580,267.884 132.600 C 273.909 126.211,275.964 123.939,277.729 121.717 C 279.230 119.828,278.074 120.924,274.395 124.878 M242.101 125.800 C 242.105 126.680,242.187 126.993,242.283 126.495 C 242.379 125.998,242.375 125.278,242.275 124.895 C 242.175 124.513,242.096 124.920,242.101 125.800 M242.893 134.400 C 242.893 135.170,242.975 135.485,243.076 135.100 C 243.176 134.715,243.176 134.085,243.076 133.700 C 242.975 133.315,242.893 133.630,242.893 134.400 M348.161 143.961 C 347.852 144.613,343.126 149.805,337.400 155.784 C 336.034 157.211,329.655 164.084,326.400 167.638 C 325.850 168.238,324.969 169.240,324.442 169.865 C 323.139 171.409,315.553 179.580,312.600 182.620 C 309.119 186.203,306.400 189.266,306.400 189.605 C 306.400 189.767,305.410 190.798,304.200 191.896 C 302.990 192.994,302.000 194.057,302.000 194.257 C 302.000 194.458,301.505 195.074,300.900 195.626 C 299.590 196.823,288.041 209.207,284.600 213.104 C 283.940 213.852,282.955 214.944,282.412 215.532 C 281.868 216.119,280.532 217.590,279.442 218.800 C 276.753 221.786,267.615 231.546,266.500 232.623 C 266.005 233.101,265.600 233.591,265.600 233.713 C 265.600 233.834,264.448 235.040,263.040 236.392 C 261.632 237.744,260.381 239.244,260.260 239.725 C 260.067 240.493,260.100 240.520,260.534 239.941 C 261.095 239.192,270.927 228.689,272.300 227.372 C 272.795 226.897,273.200 226.370,273.200 226.202 C 273.200 226.033,275.673 223.264,278.696 220.048 C 281.719 216.831,285.364 212.944,286.796 211.409 C 288.228 209.875,290.795 207.162,292.500 205.382 C 294.205 203.602,295.600 202.018,295.600 201.862 C 295.600 201.601,296.938 200.138,302.200 194.645 C 303.300 193.497,305.640 190.969,307.400 189.028 C 309.160 187.087,311.511 184.577,312.625 183.450 C 313.739 182.322,314.819 181.102,315.025 180.737 C 315.231 180.373,316.570 178.833,318.000 177.314 C 322.608 172.423,330.989 163.478,333.631 160.634 C 335.044 159.113,337.072 156.953,338.137 155.834 C 339.202 154.715,340.732 153.018,341.537 152.061 C 343.329 149.932,344.333 148.824,347.336 145.661 C 348.621 144.307,349.414 143.200,349.097 143.200 C 348.781 143.200,348.360 143.543,348.161 143.961 M242.000 148.200 C 242.746 148.970,243.447 149.600,243.557 149.600 C 243.667 149.600,243.146 148.970,242.400 148.200 C 241.654 147.430,240.953 146.800,240.843 146.800 C 240.733 146.800,241.254 147.430,242.000 148.200 M222.000 147.725 C 222.000 147.794,222.585 148.379,223.300 149.025 L 224.600 150.200 223.425 148.900 C 222.330 147.688,222.000 147.416,222.000 147.725 M225.600 150.925 C 225.600 150.994,226.185 151.579,226.900 152.225 L 228.200 153.400 227.025 152.100 C 225.930 150.888,225.600 150.616,225.600 150.925 M238.100 162.231 C 239.102 163.421,239.037 163.582,236.600 166.009 C 234.119 168.480,232.976 170.000,233.601 170.000 C 233.831 170.000,234.198 169.533,234.415 168.961 C 234.632 168.390,235.167 167.829,235.605 167.715 C 236.042 167.600,236.400 167.293,236.400 167.032 C 236.400 166.771,237.030 165.946,237.800 165.200 C 239.441 163.609,239.511 163.187,238.300 162.162 C 237.401 161.401,237.401 161.401,238.100 162.231 M231.429 171.562 L 230.258 173.000 231.609 171.713 C 232.351 171.005,232.878 170.358,232.779 170.275 C 232.681 170.192,232.073 170.771,231.429 171.562 M78.474 179.502 C 75.984 182.086,73.035 185.151,71.921 186.314 C 70.806 187.476,69.983 188.516,70.091 188.624 C 70.200 188.733,71.258 187.801,72.444 186.555 C 79.132 179.522,83.447 175.209,83.800 175.207 C 84.250 175.203,86.242 176.959,92.531 182.905 C 94.914 185.157,97.040 187.064,97.257 187.142 C 97.639 187.279,93.113 182.825,87.400 177.440 C 83.724 173.975,83.819 173.953,78.474 179.502 M188.909 183.200 C 188.909 184.190,188.987 184.595,189.082 184.100 C 189.178 183.605,189.178 182.795,189.082 182.300 C 188.987 181.805,188.909 182.210,188.909 183.200 M97.600 187.690 C 97.600 187.770,98.349 188.545,99.265 189.413 C 100.294 190.388,100.753 190.659,100.466 190.123 C 100.066 189.377,97.600 187.283,97.600 187.690 M66.513 192.464 C 61.942 197.257,61.673 197.547,58.400 201.202 C 56.750 203.045,54.928 205.014,54.352 205.577 C 53.776 206.139,52.215 207.879,50.883 209.443 C 49.551 211.006,47.548 213.166,46.433 214.243 C 45.317 215.319,44.403 216.338,44.402 216.506 C 44.401 216.674,43.896 217.304,43.281 217.906 C 42.665 218.508,42.542 218.685,43.007 218.300 C 43.471 217.915,44.065 217.600,44.326 217.600 C 44.587 217.600,44.800 217.362,44.800 217.072 C 44.800 216.782,45.745 215.538,46.900 214.308 C 48.055 213.078,50.980 209.948,53.400 207.352 C 55.820 204.756,58.160 202.249,58.600 201.781 C 59.040 201.313,60.376 199.776,61.568 198.365 C 62.760 196.954,64.380 195.163,65.168 194.383 C 67.447 192.130,70.092 189.200,69.849 189.200 C 69.727 189.200,68.225 190.669,66.513 192.464 M101.200 190.960 C 101.200 191.179,102.864 192.816,110.188 199.800 C 113.648 203.100,118.006 207.300,119.872 209.134 C 121.738 210.968,123.368 212.365,123.494 212.239 C 123.620 212.113,123.020 211.353,122.161 210.550 C 120.694 209.178,105.833 194.933,102.913 192.100 C 101.659 190.883,101.200 190.578,101.200 190.960 M205.775 198.760 C 205.897 198.957,204.405 200.802,202.458 202.860 C 200.512 204.917,198.005 207.702,196.887 209.049 C 195.770 210.396,194.369 211.881,193.774 212.349 C 193.179 212.817,192.866 213.200,193.078 213.200 C 193.460 213.200,195.306 211.327,202.900 203.234 C 206.872 199.000,207.279 198.400,206.176 198.400 C 205.833 198.400,205.653 198.562,205.775 198.760 M124.198 212.771 C 124.504 213.289,131.508 220.196,138.575 226.949 C 141.723 229.957,141.614 229.910,142.638 228.700 L 143.400 227.800 142.535 228.530 C 141.704 229.232,138.740 227.461,138.050 225.850 C 137.968 225.657,137.608 225.254,137.250 224.954 C 136.463 224.293,132.158 220.212,127.382 215.600 C 125.446 213.730,124.013 212.457,124.198 212.771 M40.846 220.231 C 38.276 221.569,38.641 222.684,43.031 226.911 C 45.137 228.940,48.730 232.445,51.013 234.700 C 53.297 236.955,55.353 238.800,55.583 238.800 C 55.812 238.800,56.000 238.981,56.000 239.201 C 56.000 239.422,57.305 240.843,58.900 242.360 C 60.495 243.877,63.578 246.847,65.751 248.959 C 67.924 251.072,69.859 252.800,70.051 252.800 C 70.243 252.800,70.400 253.070,70.400 253.400 C 70.400 253.730,70.637 254.000,70.926 254.000 C 71.216 254.000,71.989 254.585,72.643 255.300 C 73.789 256.551,79.324 261.916,103.200 284.919 C 106.170 287.780,110.400 291.895,112.600 294.063 C 114.800 296.231,116.803 298.004,117.052 298.003 C 117.300 298.001,115.320 295.891,112.652 293.313 C 109.983 290.736,105.550 286.432,102.800 283.749 C 100.050 281.067,97.125 278.271,96.300 277.536 C 95.476 276.801,92.034 273.500,88.651 270.200 C 85.269 266.900,81.714 263.505,80.751 262.656 C 79.788 261.806,74.797 257.036,69.660 252.056 C 64.523 247.075,57.953 240.720,55.060 237.932 C 52.167 235.145,49.530 232.589,49.200 232.252 C 48.509 231.547,45.831 228.900,42.155 225.291 C 40.750 223.910,39.600 222.605,39.600 222.391 C 39.600 221.903,40.914 220.566,41.650 220.305 C 41.953 220.197,42.110 220.025,42.000 219.922 C 41.890 219.819,41.371 219.958,40.846 220.231 M181.381 225.827 C 179.831 227.491,178.681 228.927,178.826 229.016 C 178.972 229.106,179.774 228.419,180.609 227.490 C 181.444 226.560,182.765 225.125,183.545 224.300 C 184.325 223.475,184.791 222.800,184.581 222.800 C 184.371 222.800,182.932 224.162,181.381 225.827 M154.175 232.100 L 153.000 233.400 154.300 232.225 C 155.512 231.130,155.784 230.800,155.475 230.800 C 155.406 230.800,154.821 231.385,154.175 232.100 M149.600 237.377 C 149.600 237.770,160.631 248.399,161.039 248.399 C 161.280 248.400,162.810 246.934,164.439 245.143 C 166.067 243.352,167.976 241.327,168.680 240.643 C 169.384 239.959,170.068 238.860,170.200 238.200 L 170.440 237.000 169.843 238.200 C 169.514 238.860,167.390 241.338,165.123 243.706 L 161.000 248.012 155.469 242.606 C 150.285 237.538,149.600 236.928,149.600 237.377 M258.920 240.955 C 258.607 241.499,251.922 248.734,247.639 253.164 C 246.450 254.394,244.492 256.570,243.287 258.000 C 242.082 259.430,240.174 261.567,239.048 262.748 C 237.922 263.930,236.460 265.478,235.800 266.189 C 235.140 266.900,232.530 269.693,230.000 272.395 C 227.470 275.098,225.130 277.662,224.800 278.095 C 224.470 278.527,223.300 279.776,222.200 280.871 C 221.100 281.966,219.480 283.741,218.600 284.816 C 217.720 285.891,213.647 290.355,209.549 294.736 C 205.451 299.117,201.797 303.039,201.427 303.451 C 201.058 303.863,199.796 305.211,198.623 306.446 C 197.449 307.682,196.178 309.167,195.798 309.746 C 195.419 310.326,194.872 310.800,194.583 310.800 C 194.295 310.800,194.000 311.046,193.929 311.347 C 193.825 311.786,189.173 316.974,184.199 322.197 C 183.758 322.660,183.079 323.525,182.690 324.119 C 182.300 324.714,181.761 325.211,181.491 325.224 C 181.221 325.238,180.370 326.055,179.600 327.040 C 178.830 328.025,176.760 330.341,175.000 332.185 C 169.551 337.896,167.415 340.424,167.017 341.635 C 166.496 343.222,163.800 343.378,163.221 341.855 C 162.848 340.873,141.693 319.492,140.421 318.811 C 140.023 318.599,144.896 323.581,151.249 329.883 C 157.602 336.185,162.800 341.634,162.800 341.991 C 162.800 342.990,163.634 343.600,165.000 343.600 C 166.373 343.600,167.200 342.989,167.200 341.975 C 167.200 341.609,168.255 340.235,169.545 338.921 C 170.834 337.607,171.959 336.335,172.045 336.094 C 172.130 335.852,173.730 334.056,175.600 332.102 C 181.165 326.287,185.275 321.874,187.400 319.432 C 188.500 318.168,190.390 316.104,191.600 314.845 C 192.810 313.586,194.410 311.846,195.156 310.978 C 195.901 310.110,197.792 308.050,199.357 306.400 C 202.888 302.678,207.280 297.918,210.753 294.053 C 213.426 291.076,216.079 288.205,225.222 278.391 C 227.983 275.426,231.849 271.200,233.812 269.000 C 235.774 266.800,237.835 264.550,238.390 264.000 C 238.946 263.450,240.840 261.404,242.600 259.453 C 244.360 257.502,246.790 254.876,248.000 253.618 C 249.210 252.360,251.280 250.095,252.600 248.585 C 253.920 247.075,256.035 244.710,257.300 243.330 C 258.565 241.949,259.600 240.726,259.600 240.610 C 259.600 240.216,259.240 240.399,258.920 240.955 M118.888 299.600 C 119.504 300.150,120.006 300.831,120.004 301.113 C 120.002 301.395,120.344 301.755,120.764 301.913 C 121.184 302.071,123.805 304.408,126.588 307.107 C 129.371 309.805,132.132 312.314,132.724 312.682 C 133.316 313.050,135.000 314.397,136.466 315.676 C 137.932 316.954,139.262 318.000,139.420 318.000 C 139.847 318.000,135.178 313.612,133.911 312.821 C 131.856 311.540,130.049 309.943,122.564 302.797 C 120.604 300.925,118.723 299.215,118.384 298.997 C 118.046 298.779,118.272 299.050,118.888 299.600 " stroke="none" fill="#c1d6e9" fill-rule="evenodd"></path><path id="path4" d="M293.800 60.052 C 289.840 64.477,285.700 69.101,284.600 70.330 C 283.500 71.559,282.816 72.432,283.080 72.271 C 283.429 72.057,297.226 56.814,300.851 52.637 C 301.028 52.434,302.347 53.317,303.839 54.637 C 305.309 55.936,307.063 57.469,307.738 58.041 L 308.964 59.083 303.987 64.641 C 301.250 67.699,299.339 69.939,299.742 69.621 C 300.627 68.920,309.200 59.361,309.200 59.075 C 309.200 58.816,301.500 51.999,301.214 52.004 C 301.097 52.007,297.760 55.628,293.800 60.052 M298.060 71.328 C 297.723 71.733,298.058 72.265,299.511 73.628 L 301.400 75.400 299.698 73.582 C 298.369 72.164,298.101 71.659,298.478 71.282 C 298.743 71.017,298.856 70.800,298.729 70.800 C 298.602 70.800,298.301 71.037,298.060 71.328 M279.085 76.500 C 272.016 84.242,269.990 86.613,270.093 87.026 C 270.252 87.657,277.539 94.091,277.919 93.934 C 278.098 93.860,280.416 91.370,283.071 88.400 C 285.726 85.430,288.242 82.693,288.662 82.317 C 289.501 81.567,289.417 81.502,299.605 90.800 C 301.654 92.670,303.256 94.006,303.165 93.769 C 302.922 93.134,289.503 81.163,289.177 81.291 C 289.025 81.351,286.430 84.154,283.410 87.520 C 280.391 90.886,277.772 93.586,277.592 93.520 C 276.888 93.263,270.371 87.089,270.482 86.784 C 270.547 86.606,273.354 83.387,276.720 79.631 C 280.086 75.874,282.755 72.800,282.652 72.800 C 282.548 72.800,280.943 74.465,279.085 76.500 M304.544 78.163 C 307.826 81.314,312.267 85.179,311.890 84.556 C 311.743 84.311,309.412 82.180,306.711 79.820 C 304.010 77.459,303.035 76.713,304.544 78.163 M263.336 94.124 C 259.794 97.788,257.157 100.878,257.286 101.211 C 257.349 101.373,259.290 103.164,261.600 105.190 L 265.800 108.875 261.667 104.938 L 257.534 101.000 261.601 96.493 L 265.668 91.986 269.334 95.269 C 271.350 97.074,276.116 101.352,279.924 104.776 C 283.732 108.199,287.025 111.063,287.242 111.139 C 287.809 111.340,275.018 99.715,267.198 92.924 L 265.729 91.648 263.336 94.124 M247.967 111.101 C 240.874 119.058,241.635 117.744,242.000 121.406 L 242.319 124.600 242.279 121.335 L 242.239 118.071 245.019 114.955 C 249.921 109.462,251.920 107.395,252.129 107.600 C 252.241 107.710,252.572 112.120,252.864 117.400 C 253.157 122.680,253.461 126.460,253.540 125.800 C 253.708 124.399,252.849 108.532,252.550 107.500 C 252.228 106.393,252.016 106.559,247.967 111.101 M266.000 108.955 C 266.000 109.062,268.655 111.531,271.900 114.443 C 275.145 117.354,278.025 120.010,278.300 120.345 C 278.575 120.679,278.800 120.756,278.800 120.515 C 278.800 120.275,278.183 119.565,277.430 118.939 C 276.676 118.312,273.796 115.766,271.030 113.281 C 268.263 110.795,266.000 108.849,266.000 108.955 M242.514 127.000 C 242.517 128.100,242.595 128.503,242.687 127.895 C 242.779 127.286,242.777 126.386,242.682 125.895 C 242.587 125.403,242.511 125.900,242.514 127.000 M253.731 129.800 C 253.733 131.340,253.805 131.921,253.892 131.091 C 253.979 130.261,253.977 129.001,253.889 128.291 C 253.800 127.581,253.729 128.260,253.731 129.800 M242.920 131.200 C 242.920 132.410,242.995 132.905,243.087 132.300 C 243.178 131.695,243.178 130.705,243.087 130.100 C 242.995 129.495,242.920 129.990,242.920 131.200 M254.072 136.110 C 253.985 138.421,254.317 138.611,259.015 138.937 L 262.200 139.157 259.600 138.781 C 254.027 137.975,254.460 138.195,254.293 136.086 L 254.144 134.200 254.072 136.110 M222.846 139.170 C 220.621 141.593,218.800 143.714,218.800 143.882 C 218.800 144.051,219.924 142.931,221.298 141.394 C 222.672 139.858,224.520 137.821,225.405 136.870 L 227.015 135.139 235.493 142.770 C 240.156 146.966,244.174 150.400,244.420 150.400 C 244.867 150.400,244.565 144.453,244.096 144.000 C 243.982 143.890,244.003 145.217,244.143 146.948 C 244.452 150.758,245.347 151.235,235.600 142.400 C 231.595 138.770,227.998 135.567,227.605 135.282 C 226.968 134.818,226.460 135.233,222.846 139.170 M243.309 136.400 C 243.309 137.390,243.387 137.795,243.482 137.300 C 243.578 136.805,243.578 135.995,243.482 135.500 C 243.387 135.005,243.309 135.410,243.309 136.400 M243.720 141.600 C 243.720 142.810,243.795 143.305,243.887 142.700 C 243.978 142.095,243.978 141.105,243.887 140.500 C 243.795 139.895,243.720 140.390,243.720 141.600 M218.800 144.517 C 218.800 144.626,222.941 148.436,228.003 152.985 C 238.191 162.142,239.600 163.367,239.600 163.064 C 239.600 162.951,237.398 160.910,234.707 158.529 C 232.016 156.148,228.371 152.875,226.607 151.256 C 222.266 147.270,218.800 144.279,218.800 144.517 M210.064 158.048 C 207.548 158.647,208.252 158.874,211.031 158.360 C 215.637 157.509,224.395 160.323,224.399 162.656 C 224.401 163.642,217.091 171.265,216.334 171.067 C 215.930 170.961,215.700 171.038,215.823 171.237 C 216.519 172.363,218.403 170.672,224.123 163.791 L 225.245 162.441 223.323 161.026 C 219.602 158.288,214.177 157.070,210.064 158.048 M204.499 160.182 C 202.250 161.468,198.448 164.425,197.205 165.856 C 196.465 166.708,196.618 166.635,197.805 165.569 C 200.301 163.329,202.629 161.624,204.905 160.369 C 206.057 159.734,206.820 159.213,206.600 159.212 C 206.380 159.211,205.435 159.647,204.499 160.182 M194.744 168.700 C 193.593 170.089,193.106 170.800,193.304 170.800 C 193.414 170.800,193.986 170.170,194.573 169.400 C 195.663 167.971,195.795 167.432,194.744 168.700 M209.000 169.802 L 207.800 170.367 209.000 170.084 C 209.660 169.928,211.010 169.822,212.000 169.848 C 213.264 169.882,213.562 169.801,213.000 169.576 C 211.788 169.091,210.333 169.173,209.000 169.802 M204.315 172.764 C 200.461 176.286,198.986 180.480,200.543 183.489 C 201.282 184.918,203.015 186.400,203.948 186.400 C 204.300 186.400,203.960 186.065,203.194 185.655 C 198.832 183.323,199.555 177.399,204.769 172.752 C 205.974 171.678,206.848 170.800,206.712 170.800 C 206.576 170.800,205.497 171.684,204.315 172.764 M192.119 172.500 C 191.106 174.378,190.368 176.101,190.514 176.248 C 190.584 176.317,191.215 175.210,191.917 173.787 C 193.225 171.133,193.377 170.168,192.119 172.500 M224.200 175.164 C 222.238 176.299,210.793 183.870,210.400 184.293 C 209.820 184.918,212.796 183.079,217.526 179.891 C 220.455 177.917,223.785 175.787,224.926 175.158 C 226.067 174.529,226.820 174.013,226.600 174.011 C 226.380 174.009,225.300 174.528,224.200 175.164 M189.800 178.000 C 189.648 178.691,189.607 179.341,189.709 179.442 C 189.811 179.544,190.009 179.053,190.150 178.350 C 190.483 176.683,190.160 176.360,189.800 178.000 M189.337 183.000 C 189.339 184.760,189.409 185.430,189.493 184.489 C 189.578 183.549,189.577 182.109,189.491 181.289 C 189.405 180.470,189.336 181.240,189.337 183.000 M209.000 184.891 C 208.560 185.148,207.570 185.584,206.800 185.861 C 206.030 186.138,205.722 186.373,206.116 186.382 C 206.842 186.400,210.000 184.944,210.000 184.592 C 210.000 184.330,209.920 184.354,209.000 184.891 M190.412 189.407 C 190.398 189.874,192.321 192.800,192.642 192.800 C 192.759 192.800,192.510 192.305,192.088 191.700 C 191.667 191.095,191.120 190.240,190.873 189.800 C 190.626 189.360,190.419 189.183,190.412 189.407 M194.399 194.820 C 196.154 196.443,199.103 198.231,199.452 197.882 C 199.547 197.786,199.040 197.465,198.323 197.168 C 197.607 196.872,196.026 195.847,194.810 194.892 L 192.600 193.155 194.399 194.820 M202.905 198.687 C 203.514 198.779,204.414 198.777,204.905 198.682 C 205.397 198.587,204.900 198.511,203.800 198.514 C 202.700 198.517,202.297 198.595,202.905 198.687 M161.662 207.388 C 159.428 209.911,157.600 212.075,157.600 212.196 C 157.600 212.317,159.427 210.388,161.660 207.908 C 165.236 203.937,165.864 203.408,166.929 203.467 C 167.785 203.514,167.972 203.428,167.569 203.173 C 166.356 202.405,165.593 202.949,161.662 207.388 M171.802 205.141 C 172.683 205.550,173.853 206.000,174.402 206.142 C 174.951 206.285,174.679 206.067,173.798 205.659 C 172.917 205.250,171.747 204.800,171.198 204.658 C 170.649 204.515,170.921 204.733,171.802 205.141 M179.002 207.941 C 179.883 208.350,181.053 208.800,181.602 208.942 C 182.151 209.085,181.879 208.867,180.998 208.459 C 180.117 208.050,178.947 207.600,178.398 207.458 C 177.849 207.315,178.121 207.533,179.002 207.941 M186.358 210.837 C 187.325 211.266,188.188 211.545,188.275 211.458 C 188.448 211.286,185.365 209.982,184.892 210.028 C 184.731 210.044,185.391 210.408,186.358 210.837 M189.200 211.933 C 189.530 212.136,190.250 212.424,190.800 212.571 C 191.495 212.757,191.617 212.725,191.200 212.467 C 190.870 212.264,190.150 211.976,189.600 211.829 C 188.905 211.643,188.783 211.675,189.200 211.933 M164.423 226.300 C 168.507 234.248,170.672 238.127,169.950 236.200 C 169.526 235.070,159.912 216.800,159.741 216.800 C 159.631 216.800,161.738 221.075,164.423 226.300 M172.600 218.400 C 172.941 219.060,173.312 219.600,173.424 219.600 C 173.536 219.600,173.427 219.225,173.182 218.766 C 172.482 217.458,172.861 217.485,176.400 219.000 C 178.223 219.780,179.783 220.351,179.866 220.268 C 180.065 220.068,173.149 217.186,172.490 217.194 C 172.100 217.199,172.126 217.484,172.600 218.400 M174.600 222.000 C 175.157 223.100,175.703 224.000,175.813 224.000 C 175.923 224.000,175.557 223.100,175.000 222.000 C 174.443 220.900,173.897 220.000,173.787 220.000 C 173.677 220.000,174.043 220.900,174.600 222.000 M149.994 225.433 C 151.421 226.735,153.214 228.364,153.978 229.054 L 155.367 230.309 152.430 233.567 C 150.814 235.359,149.561 236.881,149.646 236.950 C 149.731 237.018,151.148 235.546,152.796 233.679 L 155.792 230.284 152.796 227.519 C 151.148 225.998,149.260 224.374,148.600 223.910 C 147.940 223.446,148.567 224.131,149.994 225.433 M145.200 225.720 C 143.074 228.116,141.884 229.600,142.089 229.600 C 142.357 229.600,147.293 223.959,147.145 223.823 C 147.065 223.750,146.190 224.604,145.200 225.720 M177.200 226.800 C 177.649 227.680,178.106 228.400,178.216 228.400 C 178.326 228.400,178.049 227.680,177.600 226.800 C 177.151 225.920,176.694 225.200,176.584 225.200 C 176.474 225.200,176.751 225.920,177.200 226.800 " stroke="none" fill="#c0bdcf" fill-rule="evenodd"></path></g></svg>